<svg width="117" height="32" fill="none" xmlns="http://www.w3.org/2000/svg"><g clip-path="url(#a)"><path d="M29.795 0l-9.692 22.456h-.163l-1.052-9.242-5.05 11.428.36 2.687h10.255L36.53 0h-6.736z" fill="#F05B22"/><path d="M17.993 0L8.298 22.456h-.16l-1.058-9.29H.507l1.887 14.166H12.65l1.187-2.69-1.53-11.477h6.577l.003.05L24.73 0h-6.737z" fill="#F8A352"/><path d="M18.886 13.164h-6.577l1.53 11.477 5.05-11.428-.003-.049z" fill="#C43F27"/><path d="M41.575 13.172l-4.073 9.287h-.163l-.836-9.287h-3.559l-3.992 9.287h-.163l-.996-9.287h-3.67l1.89 14.163h3.882l3.858-8.716.836 8.716h4.072l6.691-14.163h-3.777zM53.848 12.898c-1.7 0-3.157.627-4.208 1.825l1.294-7.328h-3.777l-3.476 19.94h3.777l1.43-8.197c.322-1.854 1.536-3.188 3.45-3.188 1.7 0 2.158 1.061 2.158 2.26 0 .626-.135 1.197-.215 1.688l-1.297 7.437h3.694l1.35-7.518c.163-.872.322-1.853.322-2.67.004-2.697-1.831-4.249-4.502-4.249zM71.178 15.295c-.728-1.283-2.13-2.397-4.72-2.397-4.559 0-7.58 3.434-7.58 7.848 0 4.004 2.456 6.863 6.393 6.863 1.78 0 3.32-.59 4.073-1.63l-.243 1.356h3.361l.496-3.051 1.943-11.112h-3.348l-.374 2.123zm-5.043 9.343c-2.265 0-3.615-1.552-3.615-3.948 0-2.372 1.294-4.82 4.236-4.82 2.428 0 3.694 1.688 3.694 3.923 0 2.42-1.485 4.845-4.315 4.845zM79.486 22.948l1.214-7h3.614l.458-2.777h-3.614l.728-4.085h-3.073L77.49 13.17h-1.96l-.52 2.778h1.97l-1.134 6.537c-.486 2.806-.08 5.122 3.427 5.122 1.78 0 2.546-.35 3.056-.596l.465-2.69c-.621.217-1.526.402-2.064.402-1.166-.003-1.436-.686-1.245-1.776zM99.002 11.266c1.135 0 2.05-.925 2.05-2.07 0-1.146-.915-2.071-2.05-2.071-1.134 0-2.05.925-2.05 2.07 0 1.143.92 2.07 2.05 2.07zM95.387 13.172l-.503 2.77 1.662.04-1.967 11.353h3.694l2.484-14.163h-5.37zM115.617 13.172h-4.395l-3.236 4.358-2.133-4.358h-4.017l3.666 6.838-6.178 7.325h4.426l3.452-4.603 2.213 4.603h3.937l-3.614-7.055 5.879-7.108zM92.23 11.753c.188-1.037.35-1.797 1.728-1.797.458 0 .673.038 1.152.101l.454-2.645s-.999-.287-2.227-.287c-3.48 0-4.423 2.589-4.829 4.796l-.215 1.254H86l-.378 2.775h2.158l-1.97 11.522c-.163.872-.514 1.5-1.593 1.632l-.513 2.887c4.194.238 5.235-1.443 5.745-4.41l2.05-11.631h2.563l.486-2.778h-2.564l.247-1.42z" fill="#25223B"/></g><defs><clipPath id="a"><path fill="#fff" d="M0 0H117V32H0z"/></clipPath></defs></svg>