<svg width="541" height="559" viewBox="0 0 541 559" fill="none" xmlns="http://www.w3.org/2000/svg">
<g clip-path="url(#clip0_1041_402)">
<path d="M15.7267 31.4045C24.4124 31.4045 31.4535 24.3744 31.4535 15.7022C31.4535 7.03014 24.4124 0 15.7267 0C7.0411 0 0 7.03014 0 15.7022C0 24.3744 7.0411 31.4045 15.7267 31.4045Z" fill="white"/>
<path d="M15.7267 106.776C24.4124 106.776 31.4535 99.7455 31.4535 91.0733C31.4535 82.4012 24.4124 75.3711 15.7267 75.3711C7.0411 75.3711 0 82.4012 0 91.0733C0 99.7455 7.0411 106.776 15.7267 106.776Z" fill="white"/>
<path d="M15.7267 257.518C24.4124 257.518 31.4535 250.488 31.4535 241.816C31.4535 233.143 24.4124 226.113 15.7267 226.113C7.0411 226.113 0 233.143 0 241.816C0 250.488 7.0411 257.518 15.7267 257.518Z" fill="white"/>
<path d="M15.7267 332.889C24.4124 332.889 31.4535 325.859 31.4535 317.187C31.4535 308.515 24.4124 301.484 15.7267 301.484C7.0411 301.484 0 308.515 0 317.187C0 325.859 7.0411 332.889 15.7267 332.889Z" fill="white"/>
<path d="M15.7267 417.678C24.4124 417.678 31.4535 410.648 31.4535 401.976C31.4535 393.304 24.4124 386.273 15.7267 386.273C7.0411 386.273 0 393.304 0 401.976C0 410.648 7.0411 417.678 15.7267 417.678Z" fill="white"/>
<path d="M15.7267 493.049C24.4124 493.049 31.4535 486.019 31.4535 477.347C31.4535 468.675 24.4124 461.645 15.7267 461.645C7.0411 461.645 0 468.675 0 477.347C0 486.019 7.0411 493.049 15.7267 493.049Z" fill="white"/>
<path d="M15.7267 182.147C24.4124 182.147 31.4535 175.117 31.4535 166.444C31.4535 157.772 24.4124 150.742 15.7267 150.742C7.0411 150.742 0 157.772 0 166.444C0 175.117 7.0411 182.147 15.7267 182.147Z" fill="white"/>
<path d="M100.651 31.4045C109.336 31.4045 116.377 24.3744 116.377 15.7022C116.377 7.03014 109.336 0 100.651 0C91.9649 0 84.9238 7.03014 84.9238 15.7022C84.9238 24.3744 91.9649 31.4045 100.651 31.4045Z" fill="white"/>
<path d="M100.651 106.776C109.336 106.776 116.377 99.7455 116.377 91.0733C116.377 82.4012 109.336 75.3711 100.651 75.3711C91.9649 75.3711 84.9238 82.4012 84.9238 91.0733C84.9238 99.7455 91.9649 106.776 100.651 106.776Z" fill="white"/>
<path d="M100.651 257.518C109.336 257.518 116.377 250.488 116.377 241.816C116.377 233.143 109.336 226.113 100.651 226.113C91.9649 226.113 84.9238 233.143 84.9238 241.816C84.9238 250.488 91.9649 257.518 100.651 257.518Z" fill="white"/>
<path d="M100.651 332.889C109.336 332.889 116.377 325.859 116.377 317.187C116.377 308.515 109.336 301.484 100.651 301.484C91.9649 301.484 84.9238 308.515 84.9238 317.187C84.9238 325.859 91.9649 332.889 100.651 332.889Z" fill="white"/>
<path d="M100.651 417.678C109.336 417.678 116.377 410.648 116.377 401.976C116.377 393.304 109.336 386.273 100.651 386.273C91.9649 386.273 84.9238 393.304 84.9238 401.976C84.9238 410.648 91.9649 417.678 100.651 417.678Z" fill="white"/>
<path d="M100.651 493.049C109.336 493.049 116.377 486.019 116.377 477.347C116.377 468.675 109.336 461.645 100.651 461.645C91.9649 461.645 84.9238 468.675 84.9238 477.347C84.9238 486.019 91.9649 493.049 100.651 493.049Z" fill="white"/>
<path d="M100.651 182.147C109.336 182.147 116.377 175.117 116.377 166.444C116.377 157.772 109.336 150.742 100.651 150.742C91.9649 150.742 84.9238 157.772 84.9238 166.444C84.9238 175.117 91.9649 182.147 100.651 182.147Z" fill="white"/>
<path d="M185.576 31.4045C194.262 31.4045 201.303 24.3744 201.303 15.7022C201.303 7.03014 194.262 0 185.576 0C176.891 0 169.85 7.03014 169.85 15.7022C169.85 24.3744 176.891 31.4045 185.576 31.4045Z" fill="white"/>
<path d="M185.576 106.776C194.262 106.776 201.303 99.7455 201.303 91.0733C201.303 82.4012 194.262 75.3711 185.576 75.3711C176.891 75.3711 169.85 82.4012 169.85 91.0733C169.85 99.7455 176.891 106.776 185.576 106.776Z" fill="white"/>
<path d="M185.576 257.518C194.262 257.518 201.303 250.488 201.303 241.816C201.303 233.143 194.262 226.113 185.576 226.113C176.891 226.113 169.85 233.143 169.85 241.816C169.85 250.488 176.891 257.518 185.576 257.518Z" fill="white"/>
<path d="M185.576 332.889C194.262 332.889 201.303 325.859 201.303 317.187C201.303 308.515 194.262 301.484 185.576 301.484C176.891 301.484 169.85 308.515 169.85 317.187C169.85 325.859 176.891 332.889 185.576 332.889Z" fill="white"/>
<path d="M185.576 182.147C194.262 182.147 201.303 175.117 201.303 166.444C201.303 157.772 194.262 150.742 185.576 150.742C176.891 150.742 169.85 157.772 169.85 166.444C169.85 175.117 176.891 182.147 185.576 182.147Z" fill="white"/>
<path d="M270.5 31.4045C279.186 31.4045 286.227 24.3744 286.227 15.7022C286.227 7.03014 279.186 0 270.5 0C261.815 0 254.773 7.03014 254.773 15.7022C254.773 24.3744 261.815 31.4045 270.5 31.4045Z" fill="white"/>
<path d="M270.5 106.776C279.186 106.776 286.227 99.7455 286.227 91.0733C286.227 82.4012 279.186 75.3711 270.5 75.3711C261.815 75.3711 254.773 82.4012 254.773 91.0733C254.773 99.7455 261.815 106.776 270.5 106.776Z" fill="white"/>
<path d="M270.5 257.518C279.186 257.518 286.227 250.488 286.227 241.816C286.227 233.143 279.186 226.113 270.5 226.113C261.815 226.113 254.773 233.143 254.773 241.816C254.773 250.488 261.815 257.518 270.5 257.518Z" fill="white"/>
<path d="M270.5 332.889C279.186 332.889 286.227 325.859 286.227 317.187C286.227 308.515 279.186 301.484 270.5 301.484C261.815 301.484 254.773 308.515 254.773 317.187C254.773 325.859 261.815 332.889 270.5 332.889Z" fill="white"/>
<path d="M270.5 182.147C279.186 182.147 286.227 175.117 286.227 166.444C286.227 157.772 279.186 150.742 270.5 150.742C261.815 150.742 254.773 157.772 254.773 166.444C254.773 175.117 261.815 182.147 270.5 182.147Z" fill="white"/>
<path d="M355.424 31.4045C364.11 31.4045 371.151 24.3744 371.151 15.7022C371.151 7.03014 364.11 0 355.424 0C346.738 0 339.697 7.03014 339.697 15.7022C339.697 24.3744 346.738 31.4045 355.424 31.4045Z" fill="white"/>
<path d="M355.424 106.776C364.11 106.776 371.151 99.7455 371.151 91.0733C371.151 82.4012 364.11 75.3711 355.424 75.3711C346.738 75.3711 339.697 82.4012 339.697 91.0733C339.697 99.7455 346.738 106.776 355.424 106.776Z" fill="white"/>
<path d="M355.424 257.518C364.11 257.518 371.151 250.488 371.151 241.816C371.151 233.143 364.11 226.113 355.424 226.113C346.738 226.113 339.697 233.143 339.697 241.816C339.697 250.488 346.738 257.518 355.424 257.518Z" fill="white"/>
<path d="M355.424 332.889C364.11 332.889 371.151 325.859 371.151 317.187C371.151 308.515 364.11 301.484 355.424 301.484C346.738 301.484 339.697 308.515 339.697 317.187C339.697 325.859 346.738 332.889 355.424 332.889Z" fill="white"/>
<path d="M355.424 182.147C364.11 182.147 371.151 175.117 371.151 166.444C371.151 157.772 364.11 150.742 355.424 150.742C346.738 150.742 339.697 157.772 339.697 166.444C339.697 175.117 346.738 182.147 355.424 182.147Z" fill="white"/>
<path d="M440.35 31.4045C449.035 31.4045 456.077 24.3744 456.077 15.7022C456.077 7.03014 449.035 0 440.35 0C431.664 0 424.623 7.03014 424.623 15.7022C424.623 24.3744 431.664 31.4045 440.35 31.4045Z" fill="white"/>
<path d="M440.35 106.776C449.035 106.776 456.077 99.7455 456.077 91.0733C456.077 82.4012 449.035 75.3711 440.35 75.3711C431.664 75.3711 424.623 82.4012 424.623 91.0733C424.623 99.7455 431.664 106.776 440.35 106.776Z" fill="white"/>
<path d="M440.35 257.518C449.035 257.518 456.077 250.488 456.077 241.816C456.077 233.143 449.035 226.113 440.35 226.113C431.664 226.113 424.623 233.143 424.623 241.816C424.623 250.488 431.664 257.518 440.35 257.518Z" fill="white"/>
<path d="M440.35 332.889C449.035 332.889 456.077 325.859 456.077 317.187C456.077 308.515 449.035 301.484 440.35 301.484C431.664 301.484 424.623 308.515 424.623 317.187C424.623 325.859 431.664 332.889 440.35 332.889Z" fill="white"/>
<path d="M440.35 417.678C449.035 417.678 456.077 410.648 456.077 401.976C456.077 393.304 449.035 386.273 440.35 386.273C431.664 386.273 424.623 393.304 424.623 401.976C424.623 410.648 431.664 417.678 440.35 417.678Z" fill="white"/>
<path d="M440.35 493.049C449.035 493.049 456.077 486.019 456.077 477.347C456.077 468.675 449.035 461.645 440.35 461.645C431.664 461.645 424.623 468.675 424.623 477.347C424.623 486.019 431.664 493.049 440.35 493.049Z" fill="white"/>
<path d="M440.35 182.147C449.035 182.147 456.077 175.117 456.077 166.444C456.077 157.772 449.035 150.742 440.35 150.742C431.664 150.742 424.623 157.772 424.623 166.444C424.623 175.117 431.664 182.147 440.35 182.147Z" fill="white"/>
<path d="M525.274 31.4045C533.959 31.4045 541 24.3744 541 15.7022C541 7.03014 533.959 0 525.274 0C516.588 0 509.547 7.03014 509.547 15.7022C509.547 24.3744 516.588 31.4045 525.274 31.4045Z" fill="white"/>
<path d="M525.274 106.776C533.959 106.776 541 99.7455 541 91.0733C541 82.4012 533.959 75.3711 525.274 75.3711C516.588 75.3711 509.547 82.4012 509.547 91.0733C509.547 99.7455 516.588 106.776 525.274 106.776Z" fill="white"/>
<path d="M525.274 257.518C533.959 257.518 541 250.488 541 241.816C541 233.143 533.959 226.113 525.274 226.113C516.588 226.113 509.547 233.143 509.547 241.816C509.547 250.488 516.588 257.518 525.274 257.518Z" fill="white"/>
<path d="M525.274 332.889C533.959 332.889 541 325.859 541 317.187C541 308.515 533.959 301.484 525.274 301.484C516.588 301.484 509.547 308.515 509.547 317.187C509.547 325.859 516.588 332.889 525.274 332.889Z" fill="white"/>
<path d="M525.274 417.678C533.959 417.678 541 410.648 541 401.976C541 393.304 533.959 386.273 525.274 386.273C516.588 386.273 509.547 393.304 509.547 401.976C509.547 410.648 516.588 417.678 525.274 417.678Z" fill="white"/>
<path d="M525.274 493.049C533.959 493.049 541 486.019 541 477.347C541 468.675 533.959 461.645 525.274 461.645C516.588 461.645 509.547 468.675 509.547 477.347C509.547 486.019 516.588 493.049 525.274 493.049Z" fill="white"/>
<path d="M525.274 182.147C533.959 182.147 541 175.117 541 166.444C541 157.772 533.959 150.742 525.274 150.742C516.588 150.742 509.547 157.772 509.547 166.444C509.547 175.117 516.588 182.147 525.274 182.147Z" fill="white"/>
<path d="M317.679 460.075C317.679 488.694 294.444 511.893 265.781 511.893C237.118 511.893 213.883 488.694 213.883 460.075C213.883 431.456 237.118 408.258 265.781 408.258C294.444 408.258 317.679 431.456 317.679 460.075Z" fill="white"/>
<path d="M317.679 460.075C317.679 488.694 294.444 511.893 265.781 511.893C237.118 511.893 213.883 488.694 213.883 460.075C213.883 431.456 237.118 408.258 265.781 408.258C294.444 408.258 317.679 431.456 317.679 460.075Z" stroke="white" stroke-width="5"/>
<path d="M355.285 459.503C355.285 508.933 315.15 549.006 265.642 549.006C216.134 549.006 176 508.933 176 459.503C176 410.072 216.134 370 265.642 370C315.15 370 355.285 410.072 355.285 459.503Z" stroke="white" stroke-width="15"/>
</g>
<defs>
<clipPath id="clip0_1041_402">
<rect width="541" height="559" fill="white"/>
</clipPath>
</defs>
</svg>
