<svg width="1200" height="1200" viewBox="0 0 1200 1200" fill="none" xmlns="http://www.w3.org/2000/svg">
<rect width="1200" height="1200" fill="white"/>
<path d="M157.326 168.587C172.417 168.587 184.651 156.367 184.651 141.294C184.651 126.22 172.417 114 157.326 114C142.234 114 130 126.22 130 141.294C130 156.367 142.234 168.587 157.326 168.587Z" fill="#0D41E1"/>
<path d="M157.326 299.595C172.417 299.595 184.651 287.375 184.651 272.301C184.651 257.228 172.417 245.008 157.326 245.008C142.234 245.008 130 257.228 130 272.301C130 287.375 142.234 299.595 157.326 299.595Z" fill="#0D41E1"/>
<path d="M157.326 561.614C172.417 561.614 184.651 549.395 184.651 534.321C184.651 519.247 172.417 507.027 157.326 507.027C142.234 507.027 130 519.247 130 534.321C130 549.395 142.234 561.614 157.326 561.614Z" fill="#0D41E1"/>
<path d="M157.326 692.622C172.417 692.622 184.651 680.402 184.651 665.329C184.651 650.255 172.417 638.035 157.326 638.035C142.234 638.035 130 650.255 130 665.329C130 680.402 142.234 692.622 157.326 692.622Z" fill="#0D41E1"/>
<path d="M157.326 840.009C172.417 840.009 184.651 827.789 184.651 812.715C184.651 797.642 172.417 785.422 157.326 785.422C142.234 785.422 130 797.642 130 812.715C130 827.789 142.234 840.009 157.326 840.009Z" fill="#0D41E1"/>
<path d="M157.326 971.017C172.417 971.017 184.651 958.797 184.651 943.723C184.651 928.649 172.417 916.43 157.326 916.43C142.234 916.43 130 928.649 130 943.723C130 958.797 142.234 971.017 157.326 971.017Z" fill="#0D41E1"/>
<path d="M157.326 430.607C172.417 430.607 184.651 418.387 184.651 403.313C184.651 388.239 172.417 376.02 157.326 376.02C142.234 376.02 130 388.239 130 403.313C130 418.387 142.234 430.607 157.326 430.607Z" fill="#0D41E1"/>
<path d="M304.884 168.587C319.976 168.587 332.21 156.367 332.21 141.294C332.21 126.22 319.976 114 304.884 114C289.793 114 277.559 126.22 277.559 141.294C277.559 156.367 289.793 168.587 304.884 168.587Z" fill="#0D41E1"/>
<path d="M304.884 299.595C319.976 299.595 332.21 287.375 332.21 272.301C332.21 257.228 319.976 245.008 304.884 245.008C289.793 245.008 277.559 257.228 277.559 272.301C277.559 287.375 289.793 299.595 304.884 299.595Z" fill="#0D41E1"/>
<path d="M304.884 561.614C319.976 561.614 332.21 549.395 332.21 534.321C332.21 519.247 319.976 507.027 304.884 507.027C289.793 507.027 277.559 519.247 277.559 534.321C277.559 549.395 289.793 561.614 304.884 561.614Z" fill="#0D41E1"/>
<path d="M304.884 692.622C319.976 692.622 332.21 680.402 332.21 665.329C332.21 650.255 319.976 638.035 304.884 638.035C289.793 638.035 277.559 650.255 277.559 665.329C277.559 680.402 289.793 692.622 304.884 692.622Z" fill="#0D41E1"/>
<path d="M304.884 840.009C319.976 840.009 332.21 827.789 332.21 812.715C332.21 797.642 319.976 785.422 304.884 785.422C289.793 785.422 277.559 797.642 277.559 812.715C277.559 827.789 289.793 840.009 304.884 840.009Z" fill="#0D41E1"/>
<path d="M304.884 971.017C319.976 971.017 332.21 958.797 332.21 943.723C332.21 928.649 319.976 916.43 304.884 916.43C289.793 916.43 277.559 928.649 277.559 943.723C277.559 958.797 289.793 971.017 304.884 971.017Z" fill="#0D41E1"/>
<path d="M304.884 430.607C319.976 430.607 332.21 418.387 332.21 403.313C332.21 388.239 319.976 376.02 304.884 376.02C289.793 376.02 277.559 388.239 277.559 403.313C277.559 418.387 289.793 430.607 304.884 430.607Z" fill="#0D41E1"/>
<path d="M452.443 168.587C467.534 168.587 479.768 156.367 479.768 141.294C479.768 126.22 467.534 114 452.443 114C437.351 114 425.117 126.22 425.117 141.294C425.117 156.367 437.351 168.587 452.443 168.587Z" fill="#0D41E1"/>
<path d="M452.443 299.595C467.534 299.595 479.768 287.375 479.768 272.301C479.768 257.228 467.534 245.008 452.443 245.008C437.351 245.008 425.117 257.228 425.117 272.301C425.117 287.375 437.351 299.595 452.443 299.595Z" fill="#0D41E1"/>
<path d="M452.443 561.614C467.534 561.614 479.768 549.395 479.768 534.321C479.768 519.247 467.534 507.027 452.443 507.027C437.351 507.027 425.117 519.247 425.117 534.321C425.117 549.395 437.351 561.614 452.443 561.614Z" fill="#0D41E1"/>
<path d="M452.443 692.622C467.534 692.622 479.768 680.402 479.768 665.329C479.768 650.255 467.534 638.035 452.443 638.035C437.351 638.035 425.117 650.255 425.117 665.329C425.117 680.402 437.351 692.622 452.443 692.622Z" fill="#0D41E1"/>
<path d="M452.443 430.607C467.534 430.607 479.768 418.387 479.768 403.313C479.768 388.239 467.534 376.02 452.443 376.02C437.351 376.02 425.117 388.239 425.117 403.313C425.117 418.387 437.351 430.607 452.443 430.607Z" fill="#0D41E1"/>
<path d="M600.001 168.587C615.093 168.587 627.327 156.367 627.327 141.294C627.327 126.22 615.093 114 600.001 114C584.91 114 572.676 126.22 572.676 141.294C572.676 156.367 584.91 168.587 600.001 168.587Z" fill="#0D41E1"/>
<path d="M600.001 299.595C615.093 299.595 627.327 287.375 627.327 272.301C627.327 257.228 615.093 245.008 600.001 245.008C584.91 245.008 572.676 257.228 572.676 272.301C572.676 287.375 584.91 299.595 600.001 299.595Z" fill="#0D41E1"/>
<path d="M600.001 561.614C615.093 561.614 627.327 549.395 627.327 534.321C627.327 519.247 615.093 507.027 600.001 507.027C584.91 507.027 572.676 519.247 572.676 534.321C572.676 549.395 584.91 561.614 600.001 561.614Z" fill="#0D41E1"/>
<path d="M600.001 692.622C615.093 692.622 627.327 680.402 627.327 665.329C627.327 650.255 615.093 638.035 600.001 638.035C584.91 638.035 572.676 650.255 572.676 665.329C572.676 680.402 584.91 692.622 600.001 692.622Z" fill="#0D41E1"/>
<path d="M600.001 430.607C615.093 430.607 627.327 418.387 627.327 403.313C627.327 388.239 615.093 376.02 600.001 376.02C584.91 376.02 572.676 388.239 572.676 403.313C572.676 418.387 584.91 430.607 600.001 430.607Z" fill="#0D41E1"/>
<path d="M747.56 168.587C762.651 168.587 774.886 156.367 774.886 141.294C774.886 126.22 762.651 114 747.56 114C732.468 114 720.234 126.22 720.234 141.294C720.234 156.367 732.468 168.587 747.56 168.587Z" fill="#0D41E1"/>
<path d="M747.56 299.595C762.651 299.595 774.886 287.375 774.886 272.301C774.886 257.228 762.651 245.008 747.56 245.008C732.468 245.008 720.234 257.228 720.234 272.301C720.234 287.375 732.468 299.595 747.56 299.595Z" fill="#0D41E1"/>
<path d="M747.56 561.614C762.651 561.614 774.886 549.395 774.886 534.321C774.886 519.247 762.651 507.027 747.56 507.027C732.468 507.027 720.234 519.247 720.234 534.321C720.234 549.395 732.468 561.614 747.56 561.614Z" fill="#0D41E1"/>
<path d="M747.56 692.622C762.651 692.622 774.886 680.402 774.886 665.329C774.886 650.255 762.651 638.035 747.56 638.035C732.468 638.035 720.234 650.255 720.234 665.329C720.234 680.402 732.468 692.622 747.56 692.622Z" fill="#0D41E1"/>
<path d="M747.56 430.607C762.651 430.607 774.886 418.387 774.886 403.313C774.886 388.239 762.651 376.02 747.56 376.02C732.468 376.02 720.234 388.239 720.234 403.313C720.234 418.387 732.468 430.607 747.56 430.607Z" fill="#0D41E1"/>
<path d="M895.115 168.587C910.206 168.587 922.44 156.367 922.44 141.294C922.44 126.22 910.206 114 895.115 114C880.023 114 867.789 126.22 867.789 141.294C867.789 156.367 880.023 168.587 895.115 168.587Z" fill="#0D41E1"/>
<path d="M895.115 299.595C910.206 299.595 922.44 287.375 922.44 272.301C922.44 257.228 910.206 245.008 895.115 245.008C880.023 245.008 867.789 257.228 867.789 272.301C867.789 287.375 880.023 299.595 895.115 299.595Z" fill="#0D41E1"/>
<path d="M895.115 561.614C910.206 561.614 922.44 549.395 922.44 534.321C922.44 519.247 910.206 507.027 895.115 507.027C880.023 507.027 867.789 519.247 867.789 534.321C867.789 549.395 880.023 561.614 895.115 561.614Z" fill="#0D41E1"/>
<path d="M895.115 692.622C910.206 692.622 922.44 680.402 922.44 665.329C922.44 650.255 910.206 638.035 895.115 638.035C880.023 638.035 867.789 650.255 867.789 665.329C867.789 680.402 880.023 692.622 895.115 692.622Z" fill="#0D41E1"/>
<path d="M895.115 840.009C910.206 840.009 922.44 827.789 922.44 812.715C922.44 797.642 910.206 785.422 895.115 785.422C880.023 785.422 867.789 797.642 867.789 812.715C867.789 827.789 880.023 840.009 895.115 840.009Z" fill="#0D41E1"/>
<path d="M895.115 971.017C910.206 971.017 922.44 958.797 922.44 943.723C922.44 928.649 910.206 916.43 895.115 916.43C880.023 916.43 867.789 928.649 867.789 943.723C867.789 958.797 880.023 971.017 895.115 971.017Z" fill="#0D41E1"/>
<path d="M895.115 430.607C910.206 430.607 922.44 418.387 922.44 403.313C922.44 388.239 910.206 376.02 895.115 376.02C880.023 376.02 867.789 388.239 867.789 403.313C867.789 418.387 880.023 430.607 895.115 430.607Z" fill="#0D41E1"/>
<path d="M1042.67 168.587C1057.76 168.587 1070 156.367 1070 141.294C1070 126.22 1057.76 114 1042.67 114C1027.58 114 1015.35 126.22 1015.35 141.294C1015.35 156.367 1027.58 168.587 1042.67 168.587Z" fill="#0D41E1"/>
<path d="M1042.67 299.595C1057.76 299.595 1070 287.375 1070 272.301C1070 257.228 1057.76 245.008 1042.67 245.008C1027.58 245.008 1015.35 257.228 1015.35 272.301C1015.35 287.375 1027.58 299.595 1042.67 299.595Z" fill="#0D41E1"/>
<path d="M1042.67 561.614C1057.76 561.614 1070 549.395 1070 534.321C1070 519.247 1057.76 507.027 1042.67 507.027C1027.58 507.027 1015.35 519.247 1015.35 534.321C1015.35 549.395 1027.58 561.614 1042.67 561.614Z" fill="#0D41E1"/>
<path d="M1042.67 692.622C1057.76 692.622 1070 680.402 1070 665.329C1070 650.255 1057.76 638.035 1042.67 638.035C1027.58 638.035 1015.35 650.255 1015.35 665.329C1015.35 680.402 1027.58 692.622 1042.67 692.622Z" fill="#0D41E1"/>
<path d="M1042.67 840.009C1057.76 840.009 1070 827.789 1070 812.715C1070 797.642 1057.76 785.422 1042.67 785.422C1027.58 785.422 1015.35 797.642 1015.35 812.715C1015.35 827.789 1027.58 840.009 1042.67 840.009Z" fill="#0D41E1"/>
<path d="M1042.67 971.017C1057.76 971.017 1070 958.797 1070 943.723C1070 928.649 1057.76 916.43 1042.67 916.43C1027.58 916.43 1015.35 928.649 1015.35 943.723C1015.35 958.797 1027.58 971.017 1042.67 971.017Z" fill="#0D41E1"/>
<path d="M1042.67 430.607C1057.76 430.607 1070 418.387 1070 403.313C1070 388.239 1057.76 376.02 1042.67 376.02C1027.58 376.02 1015.35 388.239 1015.35 403.313C1015.35 418.387 1027.58 430.607 1042.67 430.607Z" fill="#0D41E1"/>
<path d="M681.978 913.701C681.978 963.447 641.605 1003.77 591.803 1003.77C542.001 1003.77 501.629 963.447 501.629 913.701C501.629 863.956 542.001 823.633 591.803 823.633C641.605 823.633 681.978 863.956 681.978 913.701Z" fill="#0D41E1"/>
<path d="M681.978 913.701C681.978 963.447 641.605 1003.77 591.803 1003.77C542.001 1003.77 501.629 963.447 501.629 913.701C501.629 863.956 542.001 823.633 591.803 823.633C641.605 823.633 681.978 863.956 681.978 913.701Z" stroke="#0D41E1" stroke-width="5"/>
<path d="M747.316 912.706C747.316 998.626 677.581 1068.28 591.561 1068.28C505.539 1068.28 435.805 998.626 435.805 912.706C435.805 826.786 505.539 757.133 591.561 757.133C677.581 757.133 747.316 826.786 747.316 912.706Z" stroke="#0D41E1" stroke-width="15"/>
</svg>
