<?xml version="1.0" encoding="UTF-8"?>
<svg xmlns="http://www.w3.org/2000/svg" id="Layer_2" width="998.52" height="219.73" viewBox="0 0 998.52 219.73">
  <path d="M964.18,27.65h-3.8V7.65h-6.84v-3.26h17.49v3.26h-6.84v20h0Z" fill="#3f3f41" stroke-width="0"></path>
  <path d="M984.64,27.65l-6.75-19.43h-.13c.18,2.89.27,5.59.27,8.12v11.31h-3.45V4.39h5.36l6.46,18.51h.09l6.65-18.51h5.38v23.26h-3.66v-11.5c0-1.16.03-2.66.09-4.52.06-1.86.11-2.98.15-3.37h-.13l-6.99,19.4h-3.36.02Z" fill="#3f3f41" stroke-width="0"></path>
  <path d="M606.86,4.39h21.36v78.1c0,11.07-.94,19.64-5.92,26.5-4.83,6.55-12.47,10.13-21.82,10.13-11.85,0-22.92-5.46-31.49-16.21l15.28-14.34c5.14,5.61,9.82,9.66,15.74,9.66,4.83,0,6.86-4.05,6.86-12.16V4.39h-.01Z" fill="#142851" stroke-width="0"></path>
  <path d="M153.8,154.32s-25.25,15.89-46.62,15.89c-17.66,0-33.9-7.42-45.38-19.25,25.6,41.49,78.93,57.03,79.46,57.03l.88.18c16.95-4.06,33.9-19.07,33.9-19.07l-22.25-34.79h0Z" fill="#142851" stroke-width="0"></path>
  <path d="M102.77,44.32c1.41-.18,2.83-.18,4.41-.18,22.6.18,43.44,15.89,43.44,15.89l25.78-34.79S149.03,0,107.36,0C53.15,0,8.3,40.26,1.06,92.35c41.67-40.08,82.28-47.32,101.71-48.03Z" fill="#142851" stroke-width="0"></path>
  <path d="M44.67,116.71h0c-.53-3.18-.71-6.18-.71-9.53,0-22.6,12.01-42.55,30.02-53.5C53.33,59.68,26.84,72.4.18,99.23c-.18,2.65-.18,5.47-.18,8.12,0,59.33,48.2,107.36,107.36,107.36,9.71,0,19.07-1.24,28.07-3.88-18.54-6.36-82.28-33.02-90.76-94.11h0Z" fill="#ec4d1c" stroke-width="0"></path>
  <path d="M103.47,86.34c11.41,0,20.66,9.25,20.66,20.66s-9.25,20.66-20.66,20.66-20.66-9.25-20.66-20.66,9.25-20.66,20.66-20.66Z" fill="#2fa01f" stroke-width="0"></path>
  <path d="M315.92,27.55l-15.37,14.55c-10.45-11.07-22.14-16.6-35.26-16.6-11.07,0-20.29,3.69-27.67,11.27-7.58,7.58-11.27,16.81-11.27,27.88,0,7.79,1.64,14.55,5.12,20.5,3.48,5.94,7.99,10.45,14.14,13.94,6.15,3.48,12.91,5.12,20.29,5.12,6.35,0,12.3-1.23,17.42-3.69,5.12-2.25,11.07-6.56,17.22-12.91l14.96,15.37c-8.61,8.2-16.6,13.94-24.19,17.22-7.59,3.07-16.19,4.92-25.83,4.92-17.83,0-32.39-5.74-43.87-17.01s-17.22-25.83-17.22-43.66c0-11.48,2.46-21.52,7.79-30.54,5.33-9.02,12.5-15.99,22.14-21.52,9.63-5.33,20.09-7.99,31.36-7.99,9.43,0,18.86,2.05,27.26,5.94,9.22,4.1,16.6,9.84,22.96,17.22h.02Z" fill="#ec4d1c" stroke-width="0"></path>
  <path d="M336.63,7.26h23.16c12.71,0,21.73,1.02,27.06,3.48,5.33,2.46,9.63,6.15,12.91,11.27,3.08,5.12,4.92,11.48,4.92,18.86s-1.64,13.94-5.33,18.86c-3.69,5.12-9.22,9.02-16.4,11.48l27.26,51.04h-23.98l-26.03-48.99h-2.05v48.79h-21.93V7.26h.41,0ZM358.56,52.15h6.76c7.17,0,11.68-.82,14.35-2.66s3.9-4.92,3.9-9.22c0-2.46-.82-4.72-2.05-6.56-1.23-1.64-3.07-3.07-5.12-3.89-2.25-.82-6.15-1.23-11.89-1.23h-5.94v23.57h-.01Z" fill="#ec4d1c" stroke-width="0"></path>
  <path d="M439.32,7.26h21.32l26.44,80.15,27.06-80.15h21.32l19.27,115h-21.32l-12.3-72.56-24.39,72.56h-19.27l-24.19-72.56-12.5,72.56h-21.32l19.88-115h0Z" fill="#ec4d1c" stroke-width="0"></path>
  <path d="M729.94,81.86c0-13.72-4.1-24.8-12.29-33-8.21-8.39-18.66-12.51-31.77-12.51-12.31,0-22.55,3.9-30.75,12.51-8.21,8.41-12.31,18.66-12.31,31.57s4.3,22.55,12.31,30.75c8.19,8.19,18.64,12.29,31.55,12.29,8.41,0,15.58-1.43,21.73-4.3,5.94-2.87,11.29-7.79,15.58-13.94l-17.63-8.19c-5.32,5.32-11.89,8.19-19.68,8.19-6.35,0-11.89-1.85-15.99-5.32-4.1-3.29-6.77-8.21-7.57-14.16h66.61l.2-3.9h.01ZM709.04,69.77h-45.11c2.27-5.12,4.92-8.39,7.59-10.44,4.3-3.49,9.44-4.92,15.38-4.92,5.32,0,10.04,1.23,14.14,4.1,3.9,2.87,6.77,6.35,7.99,11.07v.2h0Z" fill="#142851" stroke-width="0"></path>
  <polygon points="749.21 11.56 769.92 7.87 769.92 121.23 749.21 121.23 749.21 56.66 738.35 56.66 738.35 38.82 749.21 38.82 749.21 11.56" fill="#142851" stroke-width="0"></polygon>
  <polygon points="795.74 8.08 816.45 11.77 816.45 38.41 828.95 38.41 828.95 56.45 816.45 56.45 816.45 121.02 795.74 121.02 795.74 8.08 795.74 8.08" fill="#142851" stroke-width="0"></polygon>
  <polygon points="843.09 38.41 864.41 38.41 885.73 90.48 909.92 38.41 931.24 38.41 879.38 151.77 858.06 151.77 874.87 115.49 843.09 38.41" fill="#142851" stroke-width="0"></polygon>
  <line x1="353.71" y1="190.9" x2="207.59" y2="190.9" fill="none" stroke="#afafaf" stroke-miterlimit="10" stroke-width=".5"></line>
  <path d="M419.67,199.97h-14.41l-2.65,7.34h-4.55l11.94-32.84h4.97l11.89,32.84h-4.55l-2.65-7.34h0ZM412.47,179.79l-5.97,16.68h11.94l-5.97-16.68h0Z" fill="#232323" stroke-width="0"></path>
  <path d="M464.62,207.41h-12.32v-33.02h11.85c6.96,0,10.47,3.79,10.47,8.38,0,4.17-2.61,6.59-5.78,7.63,3.6.62,6.54,4.08,6.54,8.15,0,4.98-3.93,8.86-10.75,8.86h-.01ZM463.77,177.94h-7.15v10.71h7.25c4.03,0,6.35-1.99,6.35-5.35s-2.23-5.36-6.44-5.36h-.01ZM464.1,192.2h-7.48v11.66h7.63c4.27,0,6.82-2.13,6.82-5.74s-2.74-5.92-6.96-5.92h-.01Z" fill="#232323" stroke-width="0"></path>
  <path d="M484.41,174.29c0-1.66,1.27-2.93,2.93-2.93,1.56,0,2.84,1.27,2.84,2.93s-1.28,2.94-2.84,2.94c-1.66,0-2.93-1.28-2.93-2.94ZM485.12,181.45h4.31v25.96h-4.31v-25.96h0Z" fill="#232323" stroke-width="0"></path>
  <path d="M516.44,184.95l-12.65,18.91h12.75v3.55h-17.67v-3.55l12.6-18.91h-12.51v-3.51h17.48v3.51Z" fill="#232323" stroke-width="0"></path>
  <path d="M526.85,185h-3.36v-3.56h3.36v-6.54h4.31v6.54h6.77v3.56h-6.77v15.3c0,2.56.95,3.46,3.6,3.46h3.17v3.65h-3.89c-4.59,0-7.2-1.9-7.2-7.11v-15.3h.01Z" fill="#232323" stroke-width="0"></path>
  <path d="M558.16,207.84c-7.39,0-12.84-5.21-12.84-13.45s5.26-13.36,12.84-13.36,12.46,5.31,12.46,12.41c0,.95-.05,1.71-.14,2.61h-20.75c.33,5.26,4.02,8.15,8.43,8.15,3.89,0,6.35-1.99,7.29-4.78h4.65c-1.33,4.74-5.5,8.43-11.94,8.43h0ZM549.78,192.53h16.39c.05-5.07-3.75-7.86-8.2-7.86-4.22,0-7.72,2.8-8.2,7.86h.01Z" fill="#232323" stroke-width="0"></path>
  <path d="M591.13,181.02c6.44,0,10.66,3.31,11.99,8.77h-4.64c-.9-3.13-3.51-5.12-7.34-5.12-4.74,0-8.24,3.37-8.24,9.71s3.51,9.81,8.24,9.81c3.84,0,6.39-1.85,7.34-5.11h4.64c-1.33,5.16-5.54,8.76-11.99,8.76-7.39,0-12.65-5.21-12.65-13.45s5.26-13.36,12.65-13.36h0Z" fill="#232323" stroke-width="0"></path>
  <path d="M612.62,172.35h4.31v12.84c1.71-2.74,4.93-4.21,8.57-4.21,5.78,0,10.38,3.7,10.38,11.13v15.31h-4.26v-14.69c0-5.3-2.89-8.01-7.25-8.01s-7.44,2.75-7.44,8.34v14.35h-4.31v-35.06Z" fill="#232323" stroke-width="0"></path>
  <path d="M678.04,173.96c7.15,0,12.84,3.6,15.3,10h-5.17c-1.8-3.98-5.3-6.21-10.13-6.21-6.92,0-12.08,5.02-12.08,13.13s5.17,13.07,12.08,13.07c4.83,0,8.34-2.23,10.13-6.16h5.17c-2.46,6.35-8.15,9.9-15.3,9.9-9.24,0-16.49-6.92-16.49-16.82s7.25-16.91,16.49-16.91h0Z" fill="#232323" stroke-width="0"></path>
  <path d="M714.84,207.84c-7.34,0-12.94-5.21-12.94-13.45s5.78-13.36,13.13-13.36,13.13,5.17,13.13,13.36-5.93,13.45-13.32,13.45ZM714.84,204.04c4.5,0,8.91-3.08,8.91-9.66s-4.31-9.62-8.76-9.62-8.67,3.08-8.67,9.62,4.02,9.66,8.53,9.66h-.01Z" fill="#232323" stroke-width="0"></path>
  <path d="M775.1,192.72c0-5.3-2.84-8.01-7.11-8.01s-7.34,2.8-7.34,8.39v14.31h-4.27v-14.69c0-5.3-2.84-8.01-7.1-8.01s-7.34,2.8-7.34,8.39v14.31h-4.31v-25.96h4.31v3.74c1.71-2.74,4.78-4.21,8.2-4.21,4.26,0,7.82,1.9,9.52,5.78,1.52-3.75,5.21-5.78,9.19-5.78,5.92,0,10.52,3.7,10.52,11.13v15.31h-4.27v-14.69h0Z" fill="#232323" stroke-width="0"></path>
  <path d="M804.22,181.02c6.96,0,12.31,5.21,12.31,13.32s-5.35,13.5-12.31,13.5c-4.74,0-8.1-2.56-9.71-5.21v17.1h-4.31v-38.28h4.31v4.78c1.56-2.74,4.97-5.21,9.71-5.21h0ZM803.32,184.76c-4.69,0-8.81,3.6-8.81,9.62s4.12,9.66,8.81,9.66,8.81-3.6,8.81-9.71-4.02-9.57-8.81-9.57h0Z" fill="#232323" stroke-width="0"></path>
  <path d="M836.71,181.02c4.84,0,8.15,2.47,9.67,5.17v-4.74h4.36v25.96h-4.36v-4.83c-1.56,2.8-4.93,5.26-9.71,5.26-6.92,0-12.27-5.45-12.27-13.5s5.36-13.32,12.32-13.32h0ZM837.56,184.76c-4.74,0-8.76,3.46-8.76,9.57s4.02,9.71,8.76,9.71,8.81-3.55,8.81-9.66-4.08-9.62-8.81-9.62Z" fill="#232323" stroke-width="0"></path>
  <path d="M880.82,192.72c0-5.3-2.89-8.01-7.25-8.01s-7.44,2.75-7.44,8.34v14.35h-4.31v-25.96h4.31v3.7c1.71-2.7,4.83-4.17,8.34-4.17,6.02,0,10.61,3.7,10.61,11.13v15.31h-4.26v-14.69Z" fill="#232323" stroke-width="0"></path>
  <path d="M913.83,181.45h4.45l-15.63,38.19h-4.46l5.12-12.5-10.47-25.68h4.78l8.15,21.04,8.06-21.04h0Z" fill="#232323" stroke-width="0"></path>
</svg>
